<svg width="512" height="458" viewBox="0 0 512 458" fill="none" xmlns="http://www.w3.org/2000/svg">
<g clip-path="url(#clip0)">
<path d="M130.302 1.59999C125.602 3.09999 121.102 7.39999 65.002 63.3C22.002 106.3 4.10203 124.8 2.60203 127.9C-0.397974 134 -0.797974 140.6 1.30203 147.1C2.90203 152.1 5.60203 155.1 37.502 187.1C61.302 211.1 73.402 222.4 76.502 224C82.002 226.7 91.402 227 97.202 224.6C99.302 223.7 105.302 218.9 110.402 213.8L119.802 204.7L120.002 322.1C120.302 435.1 120.402 439.6 122.202 443.3C124.602 448.2 128.902 452.5 134.202 455.3L138.302 457.5H255.802H373.302L377.402 455.3C382.402 452.6 387.102 447.8 389.502 443.1C391.202 439.7 391.302 432.8 391.602 322.1L391.802 204.7L401.202 213.8C406.302 218.9 412.302 223.7 414.402 224.6C420.202 227 429.602 226.7 435.102 224C438.202 222.4 450.302 211.1 474.102 187.1C506.002 155.1 508.702 152.1 510.302 147.1C512.402 140.6 512.002 134 509.002 127.9C507.502 124.8 489.702 106.4 446.602 63.4C392.002 8.89999 385.802 3.09999 381.402 1.59999C377.402 0.299993 372.102 -6.81728e-06 354.302 -6.81728e-06C326.702 -6.81728e-06 324.002 0.599993 316.502 8.69999C305.702 20.4 300.902 24.7 295.202 27.7C271.402 40.1 240.202 40.1 216.402 27.7C210.702 24.7 205.902 20.4 195.102 8.69999C187.602 0.599993 184.902 -6.81728e-06 157.402 0.0999932C140.702 0.0999932 134.102 0.499993 130.302 1.59999Z" fill="#4087DB"/>
<path d="M291.712 146.816H334.336C338.368 146.816 340.384 148.832 340.384 152.864V325.952C340.384 329.984 338.368 332 334.336 332H310.72C306.688 332 304.672 329.984 304.672 325.952V189.44H303.52L274.144 285.92C272.992 289.76 270.592 291.68 266.944 291.68H242.752C239.104 291.68 236.704 289.76 235.552 285.92L205.6 189.152H204.448V325.952C204.448 328.256 204.064 329.888 203.296 330.848C202.528 331.616 200.896 332 198.4 332H174.784C170.752 332 168.736 329.984 168.736 325.952V152.864C168.736 148.832 170.752 146.816 174.784 146.816H217.696C220.384 146.816 222.208 148.16 223.168 150.848L253.696 252.512H255.424L286.24 150.848C286.816 148.16 288.64 146.816 291.712 146.816Z" fill="white"/>
</g>
<defs>
<clipPath id="clip0">
<rect width="511.604" height="457.5" fill="white"/>
</clipPath>
</defs>
</svg>
