<svg width="512" height="458" viewBox="0 0 512 458" fill="none" xmlns="http://www.w3.org/2000/svg">
<g clip-path="url(#clip0)">
<path d="M130.302 1.59999C125.602 3.09999 121.102 7.39999 65.002 63.3C22.002 106.3 4.10201 124.8 2.60201 127.9C-0.397989 134 -0.797989 140.6 1.30201 147.1C2.90201 152.1 5.60201 155.1 37.502 187.1C61.302 211.1 73.402 222.4 76.502 224C82.002 226.7 91.402 227 97.202 224.6C99.302 223.7 105.302 218.9 110.402 213.8L119.802 204.7L120.002 322.1C120.302 435.1 120.402 439.6 122.202 443.3C124.602 448.2 128.902 452.5 134.202 455.3L138.302 457.5H255.802H373.302L377.402 455.3C382.402 452.6 387.102 447.8 389.502 443.1C391.202 439.7 391.302 432.8 391.602 322.1L391.802 204.7L401.202 213.8C406.302 218.9 412.302 223.7 414.402 224.6C420.202 227 429.602 226.7 435.102 224C438.202 222.4 450.302 211.1 474.102 187.1C506.002 155.1 508.702 152.1 510.302 147.1C512.402 140.6 512.002 134 509.002 127.9C507.502 124.8 489.702 106.4 446.602 63.4C392.002 8.89999 385.802 3.09999 381.402 1.59999C377.402 0.299993 372.102 -6.81728e-06 354.302 -6.81728e-06C326.702 -6.81728e-06 324.002 0.599993 316.502 8.69999C305.702 20.4 300.902 24.7 295.202 27.7C271.402 40.1 240.202 40.1 216.402 27.7C210.702 24.7 205.902 20.4 195.102 8.69999C187.602 0.599993 184.902 -6.81728e-06 157.402 0.0999932C140.702 0.0999932 134.102 0.499993 130.302 1.59999Z" fill="#8CBAEF"/>
<path d="M190.987 284.768V279.008C190.987 274.976 193.003 272.96 197.035 272.96H221.515C225.547 272.96 227.563 274.976 227.563 279.008V281.312C227.563 288.608 229.003 293.6 231.883 296.288C234.763 298.976 240.043 300.32 247.723 300.32H261.259C268.747 300.32 273.931 298.88 276.811 296C279.883 293.12 281.419 287.744 281.419 279.872V276.416C281.419 270.848 279.115 266.624 274.507 263.744C270.091 260.672 264.523 258.848 257.803 258.272C251.083 257.696 243.787 256.64 235.915 255.104C228.235 253.376 221.035 251.264 214.315 248.768C207.595 246.08 201.931 240.992 197.323 233.504C192.907 225.824 190.699 216.032 190.699 204.128V194.048C190.699 179.072 194.923 167.456 203.371 159.2C211.819 150.944 223.531 146.816 238.507 146.816H267.307C282.475 146.816 294.283 150.944 302.731 159.2C311.179 167.456 315.403 179.072 315.403 194.048V199.52C315.403 203.552 313.387 205.568 309.355 205.568H284.875C280.843 205.568 278.827 203.552 278.827 199.52V197.792C278.827 190.304 277.387 185.216 274.507 182.528C271.627 179.84 266.347 178.496 258.667 178.496H247.435C239.563 178.496 234.187 180.032 231.307 183.104C228.619 185.984 227.275 191.744 227.275 200.384V205.856C227.275 214.88 235.147 220.064 250.891 221.408C267.211 222.752 281.707 226.016 294.379 231.2C301.099 234.08 306.667 239.264 311.083 246.752C315.691 254.048 317.995 263.456 317.995 274.976V284.768C317.995 299.744 313.771 311.36 305.323 319.616C296.875 327.872 285.163 332 270.187 332H238.795C223.819 332 212.107 327.872 203.659 319.616C195.211 311.36 190.987 299.744 190.987 284.768Z" fill="white"/>
</g>
<defs>
<clipPath id="clip0">
<rect width="511.604" height="457.5" fill="white"/>
</clipPath>
</defs>
</svg>
