<svg width="512" height="458" viewBox="0 0 512 458" fill="none" xmlns="http://www.w3.org/2000/svg">
<g clip-path="url(#clip0)">
<path d="M130.302 1.59999C125.602 3.09999 121.102 7.39999 65.002 63.3C22.002 106.3 4.10201 124.8 2.60201 127.9C-0.397989 134 -0.797989 140.6 1.30201 147.1C2.90201 152.1 5.60201 155.1 37.502 187.1C61.302 211.1 73.402 222.4 76.502 224C82.002 226.7 91.402 227 97.202 224.6C99.302 223.7 105.302 218.9 110.402 213.8L119.802 204.7L120.002 322.1C120.302 435.1 120.402 439.6 122.202 443.3C124.602 448.2 128.902 452.5 134.202 455.3L138.302 457.5H255.802H373.302L377.402 455.3C382.402 452.6 387.102 447.8 389.502 443.1C391.202 439.7 391.302 432.8 391.602 322.1L391.802 204.7L401.202 213.8C406.302 218.9 412.302 223.7 414.402 224.6C420.202 227 429.602 226.7 435.102 224C438.202 222.4 450.302 211.1 474.102 187.1C506.002 155.1 508.702 152.1 510.302 147.1C512.402 140.6 512.002 134 509.002 127.9C507.502 124.8 489.702 106.4 446.602 63.4C392.002 8.89999 385.802 3.09999 381.402 1.59999C377.402 0.299993 372.102 -6.81728e-06 354.302 -6.81728e-06C326.702 -6.81728e-06 324.002 0.599993 316.502 8.69999C305.702 20.4 300.902 24.7 295.202 27.7C271.402 40.1 240.202 40.1 216.402 27.7C210.702 24.7 205.902 20.4 195.102 8.69999C187.602 0.599993 184.902 -6.81728e-06 157.402 0.0999932C140.702 0.0999932 134.102 0.499993 130.302 1.59999Z" fill="#320299"/>
<path d="M216.478 332H187.966C186.046 332 184.702 331.424 183.934 330.272C183.166 328.928 183.166 327.392 183.934 325.664L228.574 237.248L185.374 153.152C184.606 151.616 184.606 150.176 185.374 148.832C186.142 147.488 187.486 146.816 189.406 146.816H217.054C221.854 146.816 225.022 148.832 226.558 152.864L253.918 214.784H255.07L282.142 152.864C284.062 148.832 287.134 146.816 291.358 146.816H319.582C321.502 146.816 322.846 147.584 323.614 149.12C324.574 150.464 324.67 151.904 323.902 153.44L280.126 237.248L324.766 325.376C325.726 327.296 325.822 328.928 325.054 330.272C324.286 331.424 322.846 332 320.734 332H291.934C287.902 332 285.118 330.08 283.582 326.24L255.07 264.032H253.918L225.118 326.24C223.39 330.08 220.51 332 216.478 332Z" fill="white"/>
</g>
<defs>
<clipPath id="clip0">
<rect width="511.604" height="457.5" fill="white"/>
</clipPath>
</defs>
</svg>
